<svg width="13" height="6" viewBox="0 0 13 6" fill="none" xmlns="http://www.w3.org/2000/svg">
<path fill-rule="evenodd" clip-rule="evenodd" d="M7.12299 5.71588L11.7011 1.64326C11.9055 1.4629 12.0205 1.2174 12.0205 0.961285C12.0205 0.705174 11.9055 0.459668 11.7011 0.279313C11.28 -0.0931045 10.5998 -0.0931045 10.1787 0.279313L6.35637 3.67957L2.53406 0.279313C2.11292 -0.0931048 1.43276 -0.0931049 1.01162 0.279313C0.809504 0.460582 0.696832 0.705975 0.698491 0.961285C0.696832 1.2166 0.809503 1.46199 1.01162 1.64326L5.58975 5.71588C5.79249 5.89772 6.06847 6 6.35637 6C6.64427 6 6.92025 5.89772 7.12299 5.71588Z" fill="#524983"/>
</svg>
