<svg width="28" height="30" viewBox="0 0 28 30" fill="none" xmlns="http://www.w3.org/2000/svg">
<path d="M16.2266 27.1562C16.0468 26.1218 15.9166 25.242 15.7371 24.3735C15.4386 22.8994 15.0783 21.4569 14.1757 20.1982C13.2586 18.9221 12.0171 18.3539 10.5064 18.6435C9.57904 18.8228 8.70272 19.2532 7.81808 19.6025C7.47291 19.7409 7.16109 19.9789 6.67921 20.2595C6.92592 19.4692 7.12941 18.8515 7.30687 18.2259C7.74699 16.6991 8.24976 15.1889 8.58477 13.6414C9.05453 11.5231 8.09459 10.1358 5.94797 9.73829C5.1061 9.58303 4.21796 9.63217 3.34853 9.59743C3.08702 9.58855 2.82727 9.61732 2.51548 9.63041C3.43284 8.43289 4.32189 7.30763 5.1599 6.15609C7.11367 3.46721 5.38493 1.55148 3.1317 1.03672C2.52911 0.898933 1.8805 0.906674 1.25413 0.905827C0.835207 0.919411 0.470321 1.15232 0.490468 1.61471C0.504053 2.03363 0.864337 2.18579 1.25597 2.23385C1.64178 2.28672 2.03544 2.31356 2.4066 2.40786C2.84041 2.51884 3.27903 2.63564 3.68353 2.82949C4.81995 3.37693 5.10031 4.14256 4.49121 5.25169C4.06308 6.03541 3.51747 6.75973 2.98827 7.48027C2.49598 8.15078 1.96806 8.80183 1.44014 9.45289C1.17227 9.79142 0.913988 10.1416 1.09635 10.5873C1.30448 11.0998 1.79086 11.1087 2.2396 11.1194C2.81088 11.1364 3.37965 11.0675 3.9479 11.1163C4.66572 11.1687 5.38734 11.2375 6.07861 11.3999C7.01573 11.6231 7.34767 12.0724 7.25076 13.0323C7.1579 13.9497 7.00996 14.8833 6.76954 15.7759C6.24473 17.6855 5.65827 19.5678 5.066 21.4549C4.92696 21.9021 4.89533 22.29 5.26746 22.5985C5.61939 22.8945 5.99538 22.7697 6.35344 22.5522C6.99022 22.1632 7.61943 21.7413 8.2744 21.3862C8.85002 21.077 9.44687 20.7698 10.0654 20.5718C11.7172 20.0387 12.746 20.4795 13.6041 21.9802C14.2515 23.1074 14.6602 24.3243 14.9142 25.5908C15.1003 26.5027 15.2265 27.4249 15.3749 28.3386C15.4519 28.8225 15.5327 29.3228 16.1151 29.4479C16.6666 29.5594 17.0022 29.1845 17.3118 28.8018C17.4399 28.6373 17.5431 28.4544 17.651 28.2773C17.862 27.9172 18.0991 27.5651 18.2745 27.1856C19.5976 24.3723 21.9723 23.6136 24.8251 23.8482C25.3509 23.893 25.8663 24.1028 26.382 24.2538C26.6375 24.3263 26.88 24.4779 27.1385 24.5187C27.3227 24.5523 27.6094 24.5207 27.6959 24.4005C27.7939 24.2706 27.7566 23.9886 27.7139 23.8186C27.6152 23.4504 27.2827 23.1189 26.9669 22.9496C26.3401 22.6167 25.6677 22.3116 24.9792 22.1764C23.4557 21.8704 21.9349 22.0413 20.4418 22.4825C19.169 22.859 18.2532 23.7033 17.5603 24.7937C17.117 25.5117 16.7353 26.2571 16.2266 27.1562Z" fill="#EACEFF"/>
</svg>
