<svg width="22" height="22" viewBox="0 0 22 22" fill="none" xmlns="http://www.w3.org/2000/svg">
<path fill-rule="evenodd" clip-rule="evenodd" d="M14.71 7.29014C14.5222 7.10083 14.2666 6.99434 14 6.99434C13.7333 6.99434 13.4778 7.10083 13.29 7.29014L11 9.59014L8.70998 7.29014C8.31786 6.89802 7.68211 6.89802 7.28998 7.29014C6.89786 7.68226 6.89786 8.31802 7.28998 8.71014L9.58998 11.0001L7.28998 13.2901C7.10067 13.4779 6.99419 13.7335 6.99419 14.0001C6.99419 14.2668 7.10067 14.5224 7.28998 14.7101C7.47775 14.8995 7.73335 15.0059 7.99998 15.0059C8.26662 15.0059 8.52222 14.8995 8.70998 14.7101L11 12.4101L13.29 14.7101C13.4778 14.8995 13.7333 15.0059 14 15.0059C14.2666 15.0059 14.5222 14.8995 14.71 14.7101C14.8993 14.5224 15.0058 14.2668 15.0058 14.0001C15.0058 13.7335 14.8993 13.4779 14.71 13.2901L12.41 11.0001L14.71 8.71014C14.8993 8.52237 15.0058 8.26678 15.0058 8.00014C15.0058 7.7335 14.8993 7.47791 14.71 7.29014ZM18.0701 3.93008C15.5593 1.33052 11.8413 0.287957 8.34501 1.20311C4.84872 2.11827 2.11827 4.84872 1.20311 8.34501C0.287957 11.8413 1.33052 15.5593 3.93008 18.0701C6.44083 20.6696 10.1589 21.7122 13.6552 20.7971C17.1515 19.8819 19.8819 17.1515 20.7971 13.6552C21.7122 10.1589 20.6697 6.44083 18.0701 3.93008ZM16.6598 16.66C13.9627 19.3601 9.73387 19.7791 6.55933 17.6607C3.3848 15.5424 2.14861 11.4766 3.60673 7.94974C5.06484 4.42285 8.81119 2.41701 12.5548 3.15883C16.2984 3.90065 18.9968 7.18354 18.9998 11C19.007 13.1234 18.1644 15.1615 16.6598 16.66Z" fill="#272525"/>
</svg>
