<svg width="26" height="25" viewBox="0 0 26 25" fill="none" xmlns="http://www.w3.org/2000/svg">
<g clip-path="url(#clip0_9448_2919)">
<path d="M13.0006 2.16749C16.217 2.16749 16.5978 2.18159 17.8627 2.23802C19.0383 2.28975 19.6731 2.48724 20.0963 2.65182C20.6559 2.86812 21.0603 3.13145 21.4788 3.54995C21.902 3.97315 22.1606 4.37284 22.3769 4.9324C22.5415 5.35561 22.739 5.99511 22.7907 7.16597C22.8471 8.43557 22.8612 8.81645 22.8612 12.0281C22.8612 15.2444 22.8471 15.6253 22.7907 16.8902C22.739 18.0658 22.5415 18.7006 22.3769 19.1238C22.1606 19.6833 21.8973 20.0877 21.4788 20.5062C21.0556 20.9294 20.6559 21.188 20.0963 21.4044C19.6731 21.5689 19.0336 21.7664 17.8627 21.8181C16.5931 21.8746 16.2123 21.8887 13.0006 21.8887C9.78429 21.8887 9.40341 21.8746 8.13851 21.8181C6.96295 21.7664 6.32814 21.5689 5.90494 21.4044C5.34538 21.188 4.94098 20.9247 4.52249 20.5062C4.09928 20.083 3.84066 19.6833 3.62436 19.1238C3.45978 18.7006 3.26229 18.0611 3.21056 16.8902C3.15413 15.6206 3.14003 15.2397 3.14003 12.0281C3.14003 8.81175 3.15413 8.43087 3.21056 7.16597C3.26229 5.99041 3.45978 5.35561 3.62436 4.9324C3.84066 4.37284 4.10399 3.96845 4.52249 3.54995C4.94569 3.12674 5.34538 2.86812 5.90494 2.65182C6.32814 2.48724 6.96765 2.28975 8.13851 2.23802C9.40341 2.18159 9.78429 2.16749 13.0006 2.16749ZM13.0006 -0.000244141C9.73257 -0.000244141 9.32347 0.0138626 8.03976 0.0702894C6.76075 0.126716 5.88143 0.333615 5.11967 0.629856C4.32499 0.940204 3.65257 1.3493 2.98485 2.02172C2.31243 2.68944 1.90334 3.36186 1.59299 4.15183C1.29675 4.9183 1.08985 5.79291 1.03342 7.07192C0.976997 8.36034 0.962891 8.76943 0.962891 12.0375C0.962891 15.3055 0.976997 15.7146 1.03342 16.9984C1.08985 18.2774 1.29675 19.1567 1.59299 19.9184C1.90334 20.7131 2.31243 21.3855 2.98485 22.0533C3.65257 22.721 4.32499 23.1348 5.11497 23.4404C5.88143 23.7367 6.75605 23.9436 8.03506 24C9.31877 24.0564 9.72786 24.0705 12.9959 24.0705C16.264 24.0705 16.6731 24.0564 17.9568 24C19.2358 23.9436 20.1151 23.7367 20.8769 23.4404C21.6668 23.1348 22.3393 22.721 23.007 22.0533C23.6747 21.3855 24.0885 20.7131 24.3941 19.9231C24.6904 19.1567 24.8973 18.2821 24.9537 17.0031C25.0101 15.7193 25.0242 15.3102 25.0242 12.0422C25.0242 8.77414 25.0101 8.36504 24.9537 7.08133C24.8973 5.80232 24.6904 4.923 24.3941 4.16124C24.0979 3.36186 23.6888 2.68944 23.0164 2.02172C22.3487 1.354 21.6763 0.940204 20.8863 0.634558C20.1198 0.338317 19.2452 0.131419 17.9662 0.0749917C16.6778 0.0138626 16.2687 -0.000244141 13.0006 -0.000244141Z" fill="#EC3397"/>
<path d="M12.9999 5.85406C9.58603 5.85406 6.81641 8.62368 6.81641 12.0375C6.81641 15.4513 9.58603 18.221 12.9999 18.221C16.4137 18.221 19.1833 15.4513 19.1833 12.0375C19.1833 8.62368 16.4137 5.85406 12.9999 5.85406ZM12.9999 16.0485C10.7851 16.0485 8.98884 14.2523 8.98884 12.0375C8.98884 9.82276 10.7851 8.0265 12.9999 8.0265C15.2146 8.0265 17.0109 9.82276 17.0109 12.0375C17.0109 14.2523 15.2146 16.0485 12.9999 16.0485Z" fill="#EC3397"/>
<path d="M20.8715 5.60955C20.8715 6.40893 20.2226 7.05314 19.428 7.05314C18.6286 7.05314 17.9844 6.40423 17.9844 5.60955C17.9844 4.81016 18.6333 4.16595 19.428 4.16595C20.2226 4.16595 20.8715 4.81487 20.8715 5.60955Z" fill="#EC3397"/>
</g>
<defs>
<clipPath id="clip0_9448_2919">
<rect width="24.0755" height="24.0755" fill="white" transform="translate(0.962891 -0.000244141)"/>
</clipPath>
</defs>
</svg>
