<svg width="60" height="60" viewBox="0 0 60 60" fill="none" xmlns="http://www.w3.org/2000/svg">
<path fill-rule="evenodd" clip-rule="evenodd" d="M39.2752 20.7254C38.8058 20.2521 38.1668 19.9859 37.5002 19.9859C36.8336 19.9859 36.1946 20.2521 35.7252 20.7254L30.0002 26.4754L24.2752 20.7254C23.2949 19.745 21.7055 19.745 20.7252 20.7254C19.7449 21.7057 19.7449 23.295 20.7252 24.2754L26.4752 30.0004L20.7252 35.7254C20.2519 36.1948 19.9857 36.8338 19.9857 37.5004C19.9857 38.167 20.2519 38.8059 20.7252 39.2754C21.1946 39.7486 21.8336 40.0149 22.5002 40.0149C23.1668 40.0149 23.8058 39.7486 24.2752 39.2754L30.0002 33.5254L35.7252 39.2754C36.1946 39.7486 36.8336 40.0149 37.5002 40.0149C38.1668 40.0149 38.8058 39.7486 39.2752 39.2754C39.7485 38.8059 40.0147 38.167 40.0147 37.5004C40.0147 36.8338 39.7485 36.1948 39.2752 35.7254L33.5252 30.0004L39.2752 24.2754C39.7485 23.8059 40.0147 23.1669 40.0147 22.5004C40.0147 21.8338 39.7485 21.1948 39.2752 20.7254ZM47.6752 12.3252C41.3983 5.82629 32.1033 3.21989 23.3625 5.50778C14.6218 7.79566 7.79567 14.6218 5.50778 23.3625C3.21989 32.1033 5.82629 41.3983 12.3252 47.6752C18.6021 54.1741 27.8972 56.7805 36.6379 54.4926C45.3786 52.2048 52.2048 45.3786 54.4926 36.6379C56.7805 27.8972 54.1741 18.6021 47.6752 12.3252ZM44.1503 44.1502C37.4075 50.9005 26.8354 51.948 18.8991 46.6521C10.9627 41.3563 7.87228 31.1919 11.5176 22.3746C15.1628 13.5574 24.5287 8.54281 33.8878 10.3974C43.2469 12.2519 49.9928 20.4591 50.0003 30.0002C50.0183 35.3088 47.9118 40.4041 44.1503 44.1502Z" fill="#272525"/>
</svg>
