<svg width="24" height="24" viewBox="0 0 24 24" fill="none" xmlns="http://www.w3.org/2000/svg">
<path fill-rule="evenodd" clip-rule="evenodd" d="M15.7099 8.29014C15.5222 8.10083 15.2666 7.99434 14.9999 7.99434C14.7333 7.99434 14.4777 8.10083 14.2899 8.29014L11.9999 10.5901L9.70994 8.29014C9.31782 7.89802 8.68206 7.89802 8.28994 8.29014C7.89782 8.68226 7.89782 9.31802 8.28994 9.71014L10.5899 12.0001L8.28994 14.2901C8.10063 14.4779 7.99414 14.7335 7.99414 15.0001C7.99414 15.2668 8.10063 15.5224 8.28994 15.7101C8.47771 15.8995 8.7333 16.0059 8.99994 16.0059C9.26658 16.0059 9.52217 15.8995 9.70994 15.7101L11.9999 13.4101L14.2899 15.7101C14.4777 15.8995 14.7333 16.0059 14.9999 16.0059C15.2666 16.0059 15.5222 15.8995 15.7099 15.7101C15.8993 15.5224 16.0057 15.2668 16.0057 15.0001C16.0057 14.7335 15.8993 14.4779 15.7099 14.2901L13.4099 12.0001L15.7099 9.71014C15.8993 9.52238 16.0057 9.26678 16.0057 9.00014C16.0057 8.7335 15.8993 8.47791 15.7099 8.29014ZM19.0701 4.93008C16.5593 2.33052 12.8413 1.28796 9.34501 2.20311C5.84872 3.11827 3.11827 5.84872 2.20311 9.34501C1.28796 12.8413 2.33052 16.5593 4.93008 19.0701C7.44083 21.6696 11.1589 22.7122 14.6552 21.7971C18.1515 20.8819 20.8819 18.1515 21.7971 14.6552C22.7122 11.1589 21.6697 7.44083 19.0701 4.93008ZM17.66 17.6601C14.9629 20.3602 10.7341 20.7792 7.55956 18.6608C4.38502 16.5425 3.14884 12.4767 4.60695 8.94986C6.06507 5.42296 9.81141 3.41713 13.555 4.15895C17.2987 4.90076 19.997 8.18365 20 12.0001C20.0072 14.1235 19.1646 16.1616 17.66 17.6601Z" fill="#3E3E3E"/>
</svg>
