<svg width="21" height="21" viewBox="0 0 21 21" fill="none" xmlns="http://www.w3.org/2000/svg">
<path fill-rule="evenodd" clip-rule="evenodd" d="M14.3868 10.7412C16.4014 9.15618 17.1901 6.46851 16.3515 4.0462C15.5128 1.62388 13.2311 -0.000732422 10.6677 -0.000732422C8.10429 -0.000732422 5.82257 1.62388 4.98389 4.0462C4.14522 6.46851 4.93391 9.15618 6.94852 10.7412C3.51717 12.1159 1.12079 15.2675 0.713166 18.9414C0.652264 19.4951 1.05171 19.9932 1.60536 20.0541C2.15901 20.115 2.6572 19.7156 2.7181 19.1619C3.17386 15.1047 6.60496 12.0374 10.6877 12.0374C14.7705 12.0374 18.2016 15.1047 18.6574 19.1619C18.7138 19.6721 19.1465 20.0573 19.6598 20.0541H19.7701C20.3171 19.9912 20.7109 19.4989 20.6523 18.9514C20.2427 15.2667 17.8328 12.1088 14.3868 10.7412ZM10.6661 10.0293C8.45153 10.0293 6.65625 8.23399 6.65625 6.0194C6.65625 3.8048 8.45153 2.00952 10.6661 2.00952C12.8807 2.00952 14.676 3.8048 14.676 6.0194C14.676 7.08288 14.2535 8.10281 13.5015 8.85481C12.7495 9.60681 11.7296 10.0293 10.6661 10.0293Z" fill="#272525"/>
</svg>
